<?xml version="1.0" encoding="UTF-8"?>
<svg data-bbox="0.8 1.1 47.4 47.4" viewBox="0 0 50 50" xmlns="http://www.w3.org/2000/svg" data-type="color">
    <g>
        <path d="M42.9 48.5H24.5C11.4 48.5.8 37.9.8 24.8S11.4 1.1 24.5 1.1s23.7 10.6 23.7 23.7v18.4c0 2.9-2.4 5.3-5.3 5.3" fill="#ff0066" data-color="1"/>
        <path d="M40.4 27.6c-.3-.8-3.6-1.5-8.3 0-.8.3-1.6.8-2.4 1.3-.9.6-2.1.6-3.1.2-.9-.3-3.3-1.2-7-.8-3.8.4-7.7 1.9-8.7 2.6-.8.6-.1 2.8 1.9 2.6 1.5 4.4 3.3 6.1 6.2 6.1 6.6 0 7.5-5 7.8-7 0-.5.3-1 .7-1.3.5-.4 1.8-.6 2.2 0 .6 1 .7 1.3 1.1 2 1.1 1.9 3.3 2.9 6.4 2.1 2.5-.7 3-3.4 2.7-6.2 0-.2.1-.4.3-.5.2 0 .5-.5.2-1.3ZM24.9 34c-1.1 4.1-4.8 4.5-7 3.7-2.7-1-3.4-5.9-3.4-5.9s1.1-1 4.7-1.5c6.4-.9 6.2 1.5 5.6 3.6Zm12.5 0c-2.7 1.4-5 0-5.8-1.8-.4-.9-.8-2.3 1.7-3.2 3-1.1 5.2-.3 5.2-.3s.7 4.4-1.1 5.3" fill="#ffffff" data-color="2"/>
        <path d="M12.1 19.6c0 .1 0 .2-.1.3-.5.1-1.5.6-1.7 1.8 0 0-1 2.8 1.6 7.2s.2.1.3 0l.9-.3s.1 0 .1-.1c.2-.4.8-2.4.9-6.2s.2-.3.3-.2c.9.4 4 1.4 11.8-.4s12 1.4 13.1 2.6.4 0 .4-.1c.2-1.3 0-5.2-5.4-8s-.2-.4 0-.4l1.7-.4c.2 0 .2-.2.1-.3-.9-1.1-4.7-5.3-11.9-5.4s-13.9 4.9-12.2 10Z" fill="#ffffff" data-color="2"/>
    </g>
</svg>
